<svg width="136" height="41" viewBox="0 0 136 41" fill="none" xmlns="http://www.w3.org/2000/svg">
<rect width="136" height="41" rx="10" fill="#D8551F"/>
<path d="M38.8848 17.3945H36.1426V25H35.0234V17.3945H32.2871V16.4688H38.8848V17.3945ZM41.1254 25.1172C40.266 25.1172 39.5668 24.8359 39.0277 24.2734C38.4887 23.707 38.2191 22.9512 38.2191 22.0059V21.8066C38.2191 21.1777 38.3383 20.6172 38.5766 20.125C38.8187 19.6289 39.1547 19.2422 39.5844 18.9648C40.018 18.6836 40.4867 18.543 40.9906 18.543C41.8148 18.543 42.4555 18.8145 42.9125 19.3574C43.3695 19.9004 43.598 20.6777 43.598 21.6895V22.1406H39.3031C39.3187 22.7656 39.5004 23.2715 39.848 23.6582C40.1996 24.041 40.6449 24.2324 41.184 24.2324C41.5668 24.2324 41.891 24.1543 42.1566 23.998C42.4223 23.8418 42.6547 23.6348 42.8539 23.377L43.516 23.8926C42.9848 24.709 42.1879 25.1172 41.1254 25.1172ZM40.9906 19.4336C40.5531 19.4336 40.1859 19.5938 39.8891 19.9141C39.5922 20.2305 39.4086 20.6758 39.3383 21.25H42.5141V21.168C42.4828 20.6172 42.3344 20.1914 42.0687 19.8906C41.8031 19.5859 41.4437 19.4336 40.9906 19.4336ZM44.9832 18.6602L45.0184 19.457C45.5027 18.8477 46.1355 18.543 46.9168 18.543C48.2566 18.543 48.9324 19.2988 48.9441 20.8105V25H47.8602V20.8047C47.8562 20.3477 47.7508 20.0098 47.5437 19.791C47.3406 19.5723 47.0223 19.4629 46.5887 19.4629C46.2371 19.4629 45.9285 19.5566 45.6629 19.7441C45.3973 19.9316 45.1902 20.1777 45.0418 20.4824V25H43.9578V18.6602H44.9832ZM50.7629 19.4277C51.2434 18.8379 51.8684 18.543 52.6379 18.543C53.9777 18.543 54.6535 19.2988 54.6652 20.8105V25H53.5812V20.8047C53.5773 20.3477 53.4719 20.0098 53.2648 19.791C53.0617 19.5723 52.7434 19.4629 52.3098 19.4629C51.9582 19.4629 51.6496 19.5566 51.384 19.7441C51.1184 19.9316 50.9113 20.1777 50.7629 20.4824V25H49.6789V16H50.7629V19.4277ZM55.1012 21.7715C55.1012 21.1504 55.2223 20.5918 55.4645 20.0957C55.7105 19.5996 56.0504 19.2168 56.484 18.9473C56.9215 18.6777 57.4195 18.543 57.9781 18.543C58.8414 18.543 59.5387 18.8418 60.0699 19.4395C60.6051 20.0371 60.8727 20.832 60.8727 21.8242V21.9004C60.8727 22.5176 60.7535 23.0723 60.5152 23.5645C60.2809 24.0527 59.943 24.4336 59.5016 24.707C59.0641 24.9805 58.5602 25.1172 57.9898 25.1172C57.1305 25.1172 56.4332 24.8184 55.898 24.2207C55.3668 23.623 55.1012 22.832 55.1012 21.8477V21.7715ZM56.191 21.9004C56.191 22.6035 56.3531 23.168 56.6773 23.5938C57.0055 24.0195 57.443 24.2324 57.9898 24.2324C58.5406 24.2324 58.9781 24.0176 59.3023 23.5879C59.6266 23.1543 59.7887 22.5488 59.7887 21.7715C59.7887 21.0762 59.6227 20.5137 59.2906 20.084C58.9625 19.6504 58.525 19.4336 57.9781 19.4336C57.443 19.4336 57.0113 19.6465 56.6832 20.0723C56.3551 20.498 56.191 21.1074 56.191 21.9004ZM64.5863 25H63.5023V18.6602H64.5863V25ZM63.4145 16.9785C63.4145 16.8027 63.4672 16.6543 63.5727 16.5332C63.682 16.4121 63.8422 16.3516 64.0531 16.3516C64.2641 16.3516 64.4242 16.4121 64.5336 16.5332C64.643 16.6543 64.6977 16.8027 64.6977 16.9785C64.6977 17.1543 64.643 17.3008 64.5336 17.418C64.4242 17.5352 64.2641 17.5938 64.0531 17.5938C63.8422 17.5938 63.682 17.5352 63.5727 17.418C63.4672 17.3008 63.4145 17.1543 63.4145 16.9785ZM66.452 18.6602L66.4871 19.457C66.9715 18.8477 67.6043 18.543 68.3855 18.543C69.7254 18.543 70.4012 19.2988 70.4129 20.8105V25H69.3289V20.8047C69.325 20.3477 69.2195 20.0098 69.0125 19.791C68.8094 19.5723 68.491 19.4629 68.0574 19.4629C67.7059 19.4629 67.3973 19.5566 67.1316 19.7441C66.866 19.9316 66.659 20.1777 66.5105 20.4824V25H65.4266V18.6602H66.452ZM72.6184 17.125V18.6602H73.802V19.498H72.6184V23.4297C72.6184 23.6836 72.6711 23.875 72.7766 24.0039C72.882 24.1289 73.0617 24.1914 73.3156 24.1914C73.4406 24.1914 73.6125 24.168 73.8312 24.1211V25C73.5461 25.0781 73.2687 25.1172 72.9992 25.1172C72.5148 25.1172 72.1496 24.9707 71.9035 24.6777C71.6574 24.3848 71.5344 23.9688 71.5344 23.4297V19.498H70.3801V18.6602H71.5344V17.125H72.6184ZM76.8043 25.1172C75.9449 25.1172 75.2457 24.8359 74.7066 24.2734C74.1676 23.707 73.898 22.9512 73.898 22.0059V21.8066C73.898 21.1777 74.0172 20.6172 74.2555 20.125C74.4977 19.6289 74.8336 19.2422 75.2633 18.9648C75.6969 18.6836 76.1656 18.543 76.6695 18.543C77.4938 18.543 78.1344 18.8145 78.5914 19.3574C79.0484 19.9004 79.277 20.6777 79.277 21.6895V22.1406H74.982C74.9977 22.7656 75.1793 23.2715 75.527 23.6582C75.8785 24.041 76.3238 24.2324 76.8629 24.2324C77.2457 24.2324 77.5699 24.1543 77.8355 23.998C78.1012 23.8418 78.3336 23.6348 78.5328 23.377L79.1949 23.8926C78.6637 24.709 77.8668 25.1172 76.8043 25.1172ZM76.6695 19.4336C76.232 19.4336 75.8648 19.5938 75.568 19.9141C75.2711 20.2305 75.0875 20.6758 75.0172 21.25H78.193V21.168C78.1617 20.6172 78.0133 20.1914 77.7477 19.8906C77.482 19.5859 77.1227 19.4336 76.6695 19.4336ZM82.7012 19.6328C82.5371 19.6055 82.3594 19.5918 82.168 19.5918C81.457 19.5918 80.9746 19.8945 80.7207 20.5V25H79.6367V18.6602H80.6914L80.709 19.3926C81.0645 18.8262 81.5684 18.543 82.2207 18.543C82.4316 18.543 82.5918 18.5703 82.7012 18.625V19.6328ZM85.3168 25.1172C84.4574 25.1172 83.7582 24.8359 83.2191 24.2734C82.6801 23.707 82.4105 22.9512 82.4105 22.0059V21.8066C82.4105 21.1777 82.5297 20.6172 82.768 20.125C83.0102 19.6289 83.3461 19.2422 83.7758 18.9648C84.2094 18.6836 84.6781 18.543 85.182 18.543C86.0062 18.543 86.6469 18.8145 87.1039 19.3574C87.5609 19.9004 87.7895 20.6777 87.7895 21.6895V22.1406H83.4945C83.5102 22.7656 83.6918 23.2715 84.0395 23.6582C84.391 24.041 84.8363 24.2324 85.3754 24.2324C85.7582 24.2324 86.0824 24.1543 86.348 23.998C86.6137 23.8418 86.8461 23.6348 87.0453 23.377L87.7074 23.8926C87.1762 24.709 86.3793 25.1172 85.3168 25.1172ZM85.182 19.4336C84.7445 19.4336 84.3773 19.5938 84.0805 19.9141C83.7836 20.2305 83.6 20.6758 83.5297 21.25H86.7055V21.168C86.6742 20.6172 86.5258 20.1914 86.2602 19.8906C85.9945 19.5859 85.6352 19.4336 85.182 19.4336ZM91.8406 23.3184C91.8406 23.0254 91.7293 22.7988 91.5066 22.6387C91.2879 22.4746 90.9031 22.334 90.3523 22.2168C89.8055 22.0996 89.3699 21.959 89.0457 21.7949C88.7254 21.6309 88.4871 21.4355 88.3309 21.209C88.1785 20.9824 88.1023 20.7129 88.1023 20.4004C88.1023 19.8809 88.3211 19.4414 88.7586 19.082C89.2 18.7227 89.7625 18.543 90.4461 18.543C91.1648 18.543 91.7469 18.7285 92.1922 19.0996C92.6414 19.4707 92.866 19.9453 92.866 20.5234H91.7762C91.7762 20.2266 91.6492 19.9707 91.3953 19.7559C91.1453 19.541 90.8289 19.4336 90.4461 19.4336C90.0516 19.4336 89.743 19.5195 89.5203 19.6914C89.2977 19.8633 89.1863 20.0879 89.1863 20.3652C89.1863 20.627 89.2898 20.8242 89.4969 20.957C89.7039 21.0898 90.077 21.2168 90.616 21.3379C91.159 21.459 91.5984 21.6035 91.9344 21.7715C92.2703 21.9395 92.5184 22.1426 92.6785 22.3809C92.8426 22.6152 92.9246 22.9023 92.9246 23.2422C92.9246 23.8086 92.698 24.2637 92.2449 24.6074C91.7918 24.9473 91.2039 25.1172 90.4813 25.1172C89.9734 25.1172 89.5242 25.0273 89.1336 24.8477C88.743 24.668 88.4363 24.418 88.2137 24.0977C87.9949 23.7734 87.8855 23.4238 87.8855 23.0488H88.9695C88.9891 23.4121 89.1336 23.7012 89.4031 23.916C89.6766 24.127 90.0359 24.2324 90.4813 24.2324C90.8914 24.2324 91.2195 24.1504 91.4656 23.9863C91.7156 23.8184 91.8406 23.5957 91.8406 23.3184ZM97.1281 23.3184C97.1281 23.0254 97.0168 22.7988 96.7941 22.6387C96.5754 22.4746 96.1906 22.334 95.6398 22.2168C95.093 22.0996 94.6574 21.959 94.3332 21.7949C94.0129 21.6309 93.7746 21.4355 93.6184 21.209C93.466 20.9824 93.3898 20.7129 93.3898 20.4004C93.3898 19.8809 93.6086 19.4414 94.0461 19.082C94.4875 18.7227 95.05 18.543 95.7336 18.543C96.4523 18.543 97.0344 18.7285 97.4797 19.0996C97.9289 19.4707 98.1535 19.9453 98.1535 20.5234H97.0637C97.0637 20.2266 96.9367 19.9707 96.6828 19.7559C96.4328 19.541 96.1164 19.4336 95.7336 19.4336C95.3391 19.4336 95.0305 19.5195 94.8078 19.6914C94.5852 19.8633 94.4738 20.0879 94.4738 20.3652C94.4738 20.627 94.5773 20.8242 94.7844 20.957C94.9914 21.0898 95.3645 21.2168 95.9035 21.3379C96.4465 21.459 96.8859 21.6035 97.2219 21.7715C97.5578 21.9395 97.8059 22.1426 97.966 22.3809C98.1301 22.6152 98.2121 22.9023 98.2121 23.2422C98.2121 23.8086 97.9855 24.2637 97.5324 24.6074C97.0793 24.9473 96.4914 25.1172 95.7687 25.1172C95.2609 25.1172 94.8117 25.0273 94.4211 24.8477C94.0305 24.668 93.7238 24.418 93.5012 24.0977C93.2824 23.7734 93.173 23.4238 93.173 23.0488H94.257C94.2766 23.4121 94.4211 23.7012 94.6906 23.916C94.9641 24.127 95.3234 24.2324 95.7687 24.2324C96.1789 24.2324 96.507 24.1504 96.7531 23.9863C97.0031 23.8184 97.1281 23.5957 97.1281 23.3184ZM101.355 25.1172C100.496 25.1172 99.7965 24.8359 99.2574 24.2734C98.7184 23.707 98.4488 22.9512 98.4488 22.0059V21.8066C98.4488 21.1777 98.568 20.6172 98.8063 20.125C99.0484 19.6289 99.3844 19.2422 99.8141 18.9648C100.248 18.6836 100.716 18.543 101.22 18.543C102.045 18.543 102.685 18.8145 103.142 19.3574C103.599 19.9004 103.828 20.6777 103.828 21.6895V22.1406H99.5328C99.5484 22.7656 99.7301 23.2715 100.078 23.6582C100.429 24.041 100.875 24.2324 101.414 24.2324C101.796 24.2324 102.121 24.1543 102.386 23.998C102.652 23.8418 102.884 23.6348 103.084 23.377L103.746 23.8926C103.214 24.709 102.418 25.1172 101.355 25.1172ZM101.22 19.4336C100.783 19.4336 100.416 19.5938 100.119 19.9141C99.8219 20.2305 99.6383 20.6758 99.568 21.25H102.744V21.168C102.713 20.6172 102.564 20.1914 102.298 19.8906C102.033 19.5859 101.673 19.4336 101.22 19.4336Z" fill="white"/>
</svg>
