<svg width="367" height="135" viewBox="0 0 367 135" fill="none" xmlns="http://www.w3.org/2000/svg">
<g clip-path="url(#clip0_101:10)">
<g opacity="0.983974">
<path opacity="0.983974" d="M15.208 13.438C14.6098 13.7923 14.659 14.0682 14.5887 14.2843C14.5183 14.5005 14.4744 14.7158 14.4307 14.9684C14.3434 15.4735 14.2715 16.1189 14.2055 16.9194C14.0735 18.5205 13.9697 20.7236 13.8883 23.3414C13.7254 28.5768 13.6566 35.4653 13.6782 42.3565C13.6998 49.2478 13.8113 56.1379 14.007 61.3718C14.1048 63.9888 14.224 66.1879 14.366 67.7879C14.4371 68.5878 14.5126 69.2338 14.6032 69.7382C14.6484 69.9903 14.6943 70.2047 14.766 70.4202C14.8377 70.6357 14.7902 70.9124 15.3906 71.2616C15.991 71.6108 16.2007 71.4287 16.4199 71.3823C16.6391 71.336 16.845 71.2672 17.0819 71.1791C17.5558 71.003 18.143 70.743 18.8579 70.4001C20.2877 69.7144 22.2136 68.7035 24.4842 67.4641C29.0255 64.9852 34.9288 61.5937 40.7885 58.123C46.6482 54.6524 52.4614 51.105 56.8223 48.3112C59.0028 46.9143 60.8177 45.7082 62.1098 44.7818C62.7558 44.3186 63.268 43.9286 63.6525 43.5963C63.8447 43.4301 64.0048 43.283 64.1525 43.1119C64.3003 42.9409 59.9133 42.7417 59.9111 42.0382C59.9089 41.3347 64.2951 41.3413 64.1462 41.1715C63.9975 41.0016 63.8368 40.8567 63.6435 40.6922C63.257 40.3632 62.7417 39.9779 62.0928 39.5202C60.7949 38.6048 58.9728 37.4126 56.7836 36.0343C52.4053 33.2777 46.5694 29.7793 40.6881 26.3586C34.8068 22.938 28.8835 19.5969 24.3269 17.1567C22.0486 15.9366 20.1144 14.9436 18.6803 14.2701C17.9633 13.9333 17.3755 13.6774 16.9005 13.5053C16.6631 13.4193 16.4585 13.3535 16.239 13.3091C16.0195 13.2646 15.8062 13.0837 15.208 13.438ZM16.3943 17.1046C16.4504 16.4249 17.1492 16.0096 17.7581 16.2955V16.2955C19.1271 16.9386 21.0422 17.9219 23.3021 19.1321C27.8218 21.5524 33.732 24.8873 39.5965 28.2982C45.4611 31.7091 51.2839 35.1994 55.6268 37.9337C57.7983 39.3008 59.6021 40.4797 60.8411 41.3536C61.3117 41.6855 41.8229 42.5117 31.367 42.5169C32.5572 42.5163 57.7126 42.3524 40.5984 42.3632C24.342 42.3734 61.2776 42.6471 60.8446 42.9575C59.6111 43.8419 57.8158 45.0381 55.653 46.4237C51.3273 49.1949 45.5283 52.7343 39.6853 56.195C33.8423 59.6557 27.9517 63.0396 23.4473 65.4984C21.195 66.7278 19.2858 67.727 17.9208 68.3816V68.3816C17.3132 68.673 16.6126 68.265 16.5522 67.5852V67.5852C16.4166 66.0578 16.2982 63.8798 16.2012 61.2841C16.0071 56.0925 15.7118 51.4513 15.6903 44.5796C15.6687 37.708 15.9207 28.6008 16.0822 23.4078C16.1629 20.8113 16.2683 18.6332 16.3943 17.1046V17.1046Z" fill="#3CF7D5" stroke="#3CF7D5" stroke-width="2" stroke-linecap="square"/>
<path opacity="0.983974" d="M21.1783 134.067C19.747 133.235 22.6097 134.9 21.1783 134.067V134.067Z" fill="white" fill-opacity="0.960494"/>
</g>
<path d="M76.53 53.1338V44.2568H79.5886V46.4189C81.0535 49.0791 82.9695 50.4092 85.3367 50.4092C86.5437 50.4092 87.5632 50.04 88.3953 49.3018C89.2273 48.5635 89.6433 47.5967 89.6433 46.4014C89.6433 45.2412 89.3035 44.4092 88.6238 43.9053C87.9441 43.3896 86.6609 42.8799 84.7742 42.376C82.5828 41.79 80.9597 41.2393 79.905 40.7236C78.8503 40.1963 78.0066 39.4521 77.3738 38.4912C76.7527 37.5186 76.4421 36.3701 76.4421 35.0459C76.4421 32.9951 77.1218 31.3604 78.4812 30.1416C79.8523 28.9111 81.5691 28.2959 83.6316 28.2959C85.5886 28.2959 87.405 28.9287 89.0808 30.1943V28.5596H92.0691V35.9775H89.0808V34.2725C87.8269 32.3857 86.0984 31.4424 83.8953 31.4424C82.5593 31.4424 81.5339 31.7529 80.8191 32.374C80.1042 32.9834 79.7468 33.7158 79.7468 34.5713C79.7468 35.2275 79.9285 35.8076 80.2917 36.3115C80.655 36.8037 81.1179 37.167 81.6804 37.4014C82.2429 37.6357 83.3503 37.9639 85.0027 38.3857C87.1589 38.9482 88.7234 39.4756 89.696 39.9678C90.6687 40.4482 91.5066 41.2568 92.2097 42.3936C92.9128 43.5303 93.2644 44.8369 93.2644 46.3135C93.2644 48.3994 92.5261 50.1221 91.0496 51.4814C89.5847 52.8408 87.7683 53.5205 85.6003 53.5205C83.3738 53.5205 81.3699 52.7178 79.5886 51.1123V53.1338H76.53ZM97.7468 30.335C97.7468 29.7959 97.9343 29.3271 98.3093 28.9287C98.696 28.5303 99.1824 28.3311 99.7683 28.3311C100.319 28.3311 100.794 28.5244 101.192 28.9111C101.591 29.2979 101.79 29.7725 101.79 30.335C101.79 30.8975 101.591 31.3779 101.192 31.7764C100.794 32.1631 100.319 32.3564 99.7683 32.3564C99.2058 32.3564 98.7253 32.1572 98.3269 31.7588C97.9402 31.3604 97.7468 30.8857 97.7468 30.335ZM98.2214 50.1631V39.0889H95.5671V36.1182H101.561V50.1631H104.18V53.1338H95.5671V50.1631H98.2214ZM106.009 39.0889V36.1182H108.223V33.499L111.563 30.4404V36.1182H114.71V39.0889H111.563V47.3506C111.563 48.6748 111.634 49.4951 111.774 49.8115C111.927 50.1162 112.296 50.2686 112.882 50.2686C113.503 50.2686 114.112 50.1514 114.71 49.917V52.958C113.854 53.2627 112.999 53.415 112.143 53.415C111.124 53.415 110.298 53.1924 109.665 52.7471C109.032 52.29 108.634 51.7217 108.469 51.042C108.305 50.3623 108.223 49.1904 108.223 47.5264V39.0889H106.009ZM119.122 30.335C119.122 29.7959 119.309 29.3271 119.684 28.9287C120.071 28.5303 120.557 28.3311 121.143 28.3311C121.694 28.3311 122.169 28.5244 122.567 28.9111C122.966 29.2979 123.165 29.7725 123.165 30.335C123.165 30.8975 122.966 31.3779 122.567 31.7764C122.169 32.1631 121.694 32.3564 121.143 32.3564C120.581 32.3564 120.1 32.1572 119.702 31.7588C119.315 31.3604 119.122 30.8857 119.122 30.335ZM119.596 50.1631V39.0889H116.942V36.1182H122.936V50.1631H125.555V53.1338H116.942V50.1631H119.596ZM133.589 36.1182V38.1748C135.733 36.6279 137.69 35.8545 139.46 35.8545C140.561 35.8545 141.469 36.1182 142.184 36.6455C142.911 37.1611 143.385 37.7998 143.608 38.5615C143.831 39.3115 143.942 40.4131 143.942 41.8662V50.1631H146.807V53.1338H140.602V42.0068C140.602 40.7178 140.409 39.8799 140.022 39.4932C139.635 39.0947 139.161 38.8955 138.598 38.8955C137.122 38.8955 135.452 39.6162 133.589 41.0576V50.1631H136.524V53.1338H127.26V50.1631H130.249V39.0889H127.26V36.1182H133.589ZM169.026 36.1182V39.0889H165.968V51.7627C165.968 53.4736 165.88 54.7393 165.704 55.5596C165.528 56.3916 165.1 57.2354 164.421 58.0908C163.753 58.958 162.745 59.6846 161.397 60.2705C160.05 60.8564 158.544 61.1494 156.88 61.1494C154.372 61.1494 152.134 60.3936 150.165 58.8818L152.344 56.4561C153.821 57.6045 155.427 58.1787 157.161 58.1787C158.122 58.1787 159.012 57.9912 159.833 57.6162C160.653 57.2529 161.262 56.8076 161.661 56.2803C162.071 55.7529 162.335 55.249 162.452 54.7686C162.569 54.2998 162.628 53.5029 162.628 52.3779V50.8311C162.1 51.499 161.274 52.1318 160.149 52.7295C159.024 53.3271 157.794 53.626 156.458 53.626C154.02 53.626 152.034 52.7822 150.499 51.0947C148.964 49.4072 148.196 47.333 148.196 44.8721C148.196 42.1768 149.04 40.0029 150.727 38.3506C152.427 36.6865 154.389 35.8545 156.616 35.8545C158.866 35.8545 160.87 36.751 162.628 38.5439V36.1182H169.026ZM151.747 44.8018C151.747 46.5244 152.245 47.9307 153.241 49.0205C154.249 50.1104 155.532 50.6553 157.091 50.6553C158.614 50.6553 159.927 50.1104 161.028 49.0205C162.13 47.9189 162.68 46.5068 162.68 44.7842C162.68 43.0381 162.13 41.6377 161.028 40.583C159.927 39.5166 158.649 38.9834 157.196 38.9834C155.743 38.9834 154.471 39.5107 153.382 40.5654C152.292 41.6084 151.747 43.0205 151.747 44.8018ZM178.589 53.3799L172.366 31.7412H169.43V28.6826H178.782V31.7412H175.846L180.469 47.7373L184.917 31.7412H181.999V28.6826H193.231V31.7412H190.366L194.831 47.7373L199.366 31.7412H196.466V28.6826H205.448V31.7412H202.565L196.466 53.3799H192.968L187.466 34.0439L181.999 53.3799H178.589ZM221.497 45.4697H207.188C207.399 47.04 208.02 48.3115 209.052 49.2842C210.083 50.2568 211.401 50.7432 213.007 50.7432C215.339 50.7432 217.184 49.8057 218.544 47.9307L221.497 49.2314C220.536 50.7197 219.288 51.8271 217.753 52.5537C216.218 53.2686 214.612 53.626 212.936 53.626C210.335 53.626 208.108 52.8174 206.257 51.2002C204.417 49.5713 203.497 47.3799 203.497 44.626C203.497 42.0127 204.393 39.8623 206.186 38.1748C207.991 36.4873 210.059 35.6436 212.391 35.6436C214.677 35.6436 216.745 36.4697 218.596 38.1221C220.46 39.7627 221.427 42.2119 221.497 45.4697ZM218.052 43.0439C217.817 41.8486 217.196 40.7705 216.188 39.8096C215.18 38.8369 213.944 38.3506 212.479 38.3506C211.143 38.3506 210.001 38.79 209.052 39.6689C208.102 40.5361 207.522 41.6611 207.311 43.0439H218.052ZM223.219 53.1338V50.1631H226.243V31.6533H223.219V28.6826H229.512V38.5264C231.188 36.6045 233.245 35.6436 235.682 35.6436C238.026 35.6436 239.989 36.4521 241.571 38.0693C243.165 39.6748 243.962 41.7959 243.962 44.4326C243.962 46.9639 243.182 49.0967 241.624 50.8311C240.077 52.5537 238.091 53.415 235.665 53.415C234.305 53.415 233.063 53.1221 231.938 52.5361C230.813 51.9502 230.005 51.2998 229.512 50.585V53.1338H223.219ZM229.618 44.6611C229.618 46.4307 230.157 47.8369 231.235 48.8799C232.325 49.9111 233.579 50.4268 234.997 50.4268C236.485 50.4268 237.768 49.876 238.846 48.7744C239.925 47.6729 240.464 46.1963 240.464 44.3447C240.464 42.5518 239.925 41.1631 238.846 40.1787C237.78 39.1826 236.526 38.6846 235.085 38.6846C233.667 38.6846 232.401 39.2002 231.288 40.2314C230.175 41.251 229.618 42.7275 229.618 44.6611Z" fill="#3CF7D5"/>
</g>
<defs>
<clipPath id="clip0_101:10">
<rect width="367" height="135" fill="white"/>
</clipPath>
</defs>
</svg>
