<?xml version="1.0" encoding="UTF-8" standalone="no"?>
<!-- Created with Inkscape (http://www.inkscape.org/) -->

<svg
   width="360"
   height="150"
   viewBox="0 0 95.250123 39.687516"
   version="1.1"
   id="svg5"
   inkscape:version="1.1 (c68e22c387, 2021-05-23)"
   sodipodi:docname="sitingwebminimal23.svg"
   xmlns:inkscape="http://www.inkscape.org/namespaces/inkscape"
   xmlns:sodipodi="http://sodipodi.sourceforge.net/DTD/sodipodi-0.dtd"
   xmlns="http://www.w3.org/2000/svg"
   xmlns:svg="http://www.w3.org/2000/svg">
  <sodipodi:namedview
     id="namedview7"
     pagecolor="#ffffff"
     bordercolor="#666666"
     borderopacity="1.0"
     inkscape:pageshadow="2"
     inkscape:pageopacity="0.0"
     inkscape:pagecheckerboard="0"
     inkscape:document-units="mm"
     showgrid="true"
     inkscape:zoom="0.57848045"
     inkscape:cx="396.72905"
     inkscape:cy="318.93904"
     inkscape:window-width="1366"
     inkscape:window-height="705"
     inkscape:window-x="-8"
     inkscape:window-y="-8"
     inkscape:window-maximized="1"
     inkscape:current-layer="layer1"
     width="500.31497px"
     units="px">
    <inkscape:grid
       type="xygrid"
       id="grid1248" />
  </sodipodi:namedview>
  <defs
     id="defs2">
    <rect
       x="450"
       y="440"
       width="240.00002"
       height="60.000008"
       id="rect14777" />
    <linearGradient
       id="linearGradient11398"
       inkscape:swatch="solid">
      <stop
         style="stop-color:#040703;stop-opacity:1;"
         offset="0"
         id="stop11396" />
    </linearGradient>
    <linearGradient
       id="linearGradient10879"
       inkscape:swatch="solid">
      <stop
         style="stop-color:#eab603;stop-opacity:1;"
         offset="0"
         id="stop10877" />
    </linearGradient>
    <linearGradient
       id="linearGradient10721"
       inkscape:swatch="solid">
      <stop
         style="stop-color:#eab603;stop-opacity:1;"
         offset="0"
         id="stop10719" />
    </linearGradient>
    <marker
       style="overflow:visible"
       id="Arrow2Lend"
       refX="0"
       refY="0"
       orient="auto"
       inkscape:stockid="Arrow2Lend"
       inkscape:isstock="true">
      <path
         transform="matrix(-1.1,0,0,-1.1,-1.1,0)"
         d="M 8.7185878,4.0337352 -2.2072895,0.01601326 8.7185884,-4.0017078 c -1.7454984,2.3720609 -1.7354408,5.6174519 -6e-7,8.035443 z"
         style="fill:context-stroke;fill-rule:evenodd;stroke-width:0.625;stroke-linejoin:round"
         id="path6540" />
    </marker>
    <marker
       style="overflow:visible"
       id="Arrow1Lstart"
       refX="0"
       refY="0"
       orient="auto"
       inkscape:stockid="Arrow1Lstart"
       inkscape:isstock="true">
      <path
         transform="matrix(0.8,0,0,0.8,10,0)"
         style="fill:context-stroke;fill-rule:evenodd;stroke:context-stroke;stroke-width:1pt"
         d="M 0,0 5,-5 -12.5,0 5,5 Z"
         id="path6519" />
    </marker>
    <marker
       style="overflow:visible"
       id="Arrow2Sstart"
       refX="0"
       refY="0"
       orient="auto"
       inkscape:stockid="Arrow2Sstart"
       inkscape:isstock="true">
      <path
         transform="matrix(0.3,0,0,0.3,-0.69,0)"
         d="M 8.7185878,4.0337352 -2.2072895,0.01601326 8.7185884,-4.0017078 c -1.7454984,2.3720609 -1.7354408,5.6174519 -6e-7,8.035443 z"
         style="fill:context-stroke;fill-rule:evenodd;stroke-width:0.625;stroke-linejoin:round"
         id="path6549" />
    </marker>
    <marker
       style="overflow:visible"
       id="Arrow2Mstart"
       refX="0"
       refY="0"
       orient="auto"
       inkscape:stockid="Arrow2Mstart"
       inkscape:isstock="true">
      <path
         transform="scale(0.6)"
         d="M 8.7185878,4.0337352 -2.2072895,0.01601326 8.7185884,-4.0017078 c -1.7454984,2.3720609 -1.7354408,5.6174519 -6e-7,8.035443 z"
         style="fill:context-stroke;fill-rule:evenodd;stroke-width:0.625;stroke-linejoin:round"
         id="path6543" />
    </marker>
    <marker
       style="overflow:visible"
       id="Tail"
       refX="0"
       refY="0"
       orient="auto"
       inkscape:stockid="Tail"
       inkscape:isstock="true">
      <g
         transform="scale(-1.2)"
         id="g6567">
        <path
           style="fill:none;fill-rule:evenodd;stroke:context-stroke;stroke-width:0.8;stroke-linecap:round"
           d="M -3.8048674,-3.9585227 0.54352094,0"
           id="path6555" />
        <path
           style="fill:none;fill-rule:evenodd;stroke:context-stroke;stroke-width:0.8;stroke-linecap:round"
           d="M -1.2866832,-3.9585227 3.0617053,0"
           id="path6557" />
        <path
           style="fill:none;fill-rule:evenodd;stroke:context-stroke;stroke-width:0.8;stroke-linecap:round"
           d="M 1.3053582,-3.9585227 5.6537466,0"
           id="path6559" />
        <path
           style="fill:none;fill-rule:evenodd;stroke:context-stroke;stroke-width:0.8;stroke-linecap:round"
           d="M -3.8048674,4.1775838 0.54352094,0.21974226"
           id="path6561" />
        <path
           style="fill:none;fill-rule:evenodd;stroke:context-stroke;stroke-width:0.8;stroke-linecap:round"
           d="M -1.2866832,4.1775838 3.0617053,0.21974226"
           id="path6563" />
        <path
           style="fill:none;fill-rule:evenodd;stroke:context-stroke;stroke-width:0.8;stroke-linecap:round"
           d="M 1.3053582,4.1775838 5.6537466,0.21974226"
           id="path6565" />
      </g>
    </marker>
    <linearGradient
       id="linearGradient6789"
       inkscape:swatch="solid">
      <stop
         style="stop-color:#eab603;stop-opacity:1;"
         offset="0"
         id="stop6787" />
    </linearGradient>
    <marker
       style="overflow:visible"
       id="Arrow1Lend"
       refX="0"
       refY="0"
       orient="auto"
       inkscape:stockid="Arrow1Lend"
       inkscape:isstock="true">
      <path
         transform="matrix(-0.8,0,0,-0.8,-10,0)"
         style="fill:context-stroke;fill-rule:evenodd;stroke:context-stroke;stroke-width:1pt"
         d="M 0,0 5,-5 -12.5,0 5,5 Z"
         id="path6522" />
    </marker>
    <linearGradient
       id="linearGradient4980"
       inkscape:swatch="solid">
      <stop
         style="stop-color:#0b0b05;stop-opacity:1;"
         offset="0"
         id="stop4978" />
    </linearGradient>
    <rect
       x="450"
       y="440"
       width="240.00002"
       height="60.000008"
       id="rect14777-3" />
  </defs>
  <g
     inkscape:label="Capa 1"
     inkscape:groupmode="layer"
     id="layer1">
    <rect
       style="opacity:0.983974;fill:#ffffff;fill-opacity:0.962963;stroke:#042503;stroke-width:0;stroke-linecap:square;stroke-miterlimit:4;stroke-dasharray:none;stroke-dashoffset:0;stroke-opacity:0.997783;paint-order:stroke fill markers"
       id="rect11659"
       width="27.78125"
       height="1.3229166"
       x="89.296875"
       y="127.66146"
       rx="5.953125"
       ry="1.3229166" />
    <g
       id="path12607"
       inkscape:transform-center-x="-2.7477269"
       inkscape:transform-center-y="0.54087901"
       style="opacity:0.983974;mix-blend-mode:normal"
       transform="matrix(0.19266475,-0.18134121,0.18134121,0.19266475,-165.41427,-12.583219)">
      <path
         style="color:#000000;fill:#000000;fill-opacity:1;stroke:#042503;stroke-linecap:square;stroke-opacity:0.997783;-inkscape-stroke:none;paint-order:stroke fill markers"
         d="m 387.09375,529.4043 c -0.64472,-0.1495 -0.78833,0.0718 -0.97656,0.17382 -0.18824,0.102 -0.35763,0.22079 -0.55078,0.36524 -0.38631,0.28889 -0.85221,0.68406 -1.41407,1.18945 -1.1237,1.01079 -2.61572,2.45266 -4.35937,4.19336 -3.4873,3.48141 -7.97443,8.15731 -12.40039,12.89453 -4.42597,4.73723 -8.78866,9.53255 -12.02539,13.24805 -1.61837,1.85775 -2.95256,3.44311 -3.88477,4.63281 -0.4661,0.59486 -0.82979,1.08717 -1.0918,1.49219 -0.131,0.20251 -0.23718,0.3795 -0.32617,0.57422 -0.089,0.19472 -0.30032,0.35324 -0.10742,0.98633 0.1929,0.63309 0.45622,0.64579 0.63867,0.75781 0.18245,0.11202 0.37013,0.19987 0.5918,0.29492 0.44334,0.19011 1.01967,0.39698 1.73828,0.63086 1.43722,0.46776 3.42928,1.03804 5.80859,1.67773 4.75864,1.27939 11.0536,2.82664 17.36915,4.29102 6.31554,1.46439 12.64828,2.84567 17.48437,3.79102 2.41804,0.47267 4.45866,0.83636 5.95508,1.04882 0.74821,0.10623 1.35613,0.17483 1.83789,0.19922 0.24088,0.0122 0.44703,0.0164 0.66016,-0.004 0.21312,-0.0203 -2.7123,-3.034 -2.26048,-3.51759 0.45182,-0.4836 3.50079,2.39762 3.50657,2.1836 0.006,-0.21401 -0.0125,-0.4187 -0.041,-0.6582 -0.057,-0.47899 -0.16746,-1.08104 -0.32422,-1.82031 -0.31351,-1.47855 -0.81354,-3.4907 -1.44921,-5.8711 -1.27134,-4.76079 -3.07918,-10.98589 -4.96875,-17.1875 -1.88958,-6.20161 -3.85964,-12.37626 -5.45899,-17.03711 -0.79967,-2.33042 -1.5061,-4.27947 -2.07031,-5.68164 -0.28211,-0.70108 -0.52634,-1.26199 -0.74609,-1.6914 -0.10988,-0.21471 -0.20985,-0.39393 -0.33399,-0.56836 -0.12414,-0.17443 -0.15606,-0.4384 -0.80078,-0.58789 z m -0.57422,2.47851 c 0.14897,0.31734 0.30327,0.64402 0.50781,1.15235 0.53864,1.33861 1.23806,3.26853 2.03125,5.58007 1.5864,4.6231 3.55136,10.7848 5.43555,16.96875 1.8842,6.18395 3.68818,12.39497 4.94922,17.11719 0.63052,2.36111 1.12647,4.35214 1.42578,5.76367 0.11367,0.53609 -32.24282,-29.16041 -32.18952,-28.8139 -0.34937,-0.0296 31.701,29.99254 31.15827,29.91547 -1.42859,-0.20283 -3.4492,-0.56046 -5.84766,-1.0293 -4.79691,-0.93769 -11.11455,-2.31518 -17.41211,-3.77539 -6.29755,-1.46022 -12.57874,-3.00442 -17.29882,-4.27344 -2.36005,-0.63451 -4.333,-1.20187 -5.70508,-1.64844 -0.52124,-0.16964 -0.85879,-0.30061 -1.18555,-0.42773 0.20033,-0.28764 0.40825,-0.58446 0.7461,-1.01563 0.88995,-1.13578 2.21114,-2.70612 3.8164,-4.54882 3.21052,-3.68541 7.5632,-8.46963 11.97656,-13.19336 4.41336,-4.72374 8.89057,-9.39055 12.34961,-12.84375 1.72953,-1.72661 3.20653,-3.15026 4.2793,-4.11524 0.40734,-0.36641 0.68948,-0.5931 0.96289,-0.8125 z"
         id="path12885"
         sodipodi:nodetypes="ssssssssssssssssssssscsssssssssscssssscssssscsssssc" />
      <path
         style="color:#000000;fill:#ffffff;fill-opacity:0.960494;stroke-width:2.1;stroke-linecap:square;-inkscape-stroke:none;paint-order:stroke fill markers"
         d="m 379.42932,559.62131 c -1.07688,1.15261 -28.00841,10.73547 -28.46816,9.22657 -0.45975,-1.5089 34.35915,-38.77649 35.89577,-38.42019 1.53662,0.35629 -6.35074,28.04102 -7.42761,29.19362 z"
         id="path12887"
         sodipodi:nodetypes="ssss" />
    </g>
    <text
       xml:space="preserve"
       style="font-style:normal;font-variant:normal;font-weight:normal;font-stretch:normal;font-size:9.87778px;line-height:1.25;font-family:Rockwell;-inkscape-font-specification:'Rockwell, Normal';font-variant-ligatures:normal;font-variant-caps:normal;font-variant-numeric:normal;font-variant-east-asian:normal;stroke-width:0.264583"
       x="21.404243"
       y="28.952848"
       id="text19350"><tspan
         sodipodi:role="line"
         id="tspan19348"
         style="font-style:normal;font-variant:normal;font-weight:normal;font-stretch:normal;font-size:9.87778px;font-family:Rockwell;-inkscape-font-specification:'Rockwell, Normal';font-variant-ligatures:normal;font-variant-caps:normal;font-variant-numeric:normal;font-variant-east-asian:normal;stroke-width:0.264583"
         x="21.404243"
         y="28.952848">SitingWeb</tspan></text>
  </g>
</svg>
