<svg width="245" height="66" viewBox="0 0 245 66" fill="none" xmlns="http://www.w3.org/2000/svg">
<path d="M0 27C0 12.0883 12.0883 0 27 0L134.833 0L217.472 0C232.384 0 244.472 12.0883 244.472 27V39C244.472 53.9117 232.384 66 217.472 66H27C12.0883 66 0 53.9117 0 39L0 27Z" fill="#BC2680" fill-opacity="0.95"/>
<path d="M54.0049 39.1846C52.124 39.1846 50.6328 38.5928 49.5312 37.4092C48.4297 36.2256 47.8789 34.5908 47.8789 32.5049C47.8789 30.5244 48.4531 28.9365 49.6016 27.7412C50.7559 26.54 52.2646 25.9395 54.1279 25.9395C55.6338 25.9395 56.9082 26.2881 57.9512 26.9854L57.2041 28.7871C56.2021 28.1719 55.1943 27.8643 54.1807 27.8643C52.9971 27.8643 52.0596 28.292 51.3682 29.1475C50.6826 29.9971 50.3398 31.1396 50.3398 32.5752C50.3398 34.0635 50.6709 35.2148 51.333 36.0293C52.001 36.8438 52.9502 37.251 54.1807 37.251C55.2588 37.251 56.3281 36.9814 57.3887 36.4424L57.7051 38.3057C56.7207 38.8916 55.4873 39.1846 54.0049 39.1846ZM65.6476 36.0205C66.2863 36.835 67.2296 37.2422 68.4777 37.2422C69.7257 37.2422 70.6661 36.8379 71.2989 36.0293C71.9376 35.2148 72.257 34.0664 72.257 32.584C72.257 31.084 71.9376 29.9209 71.2989 29.0947C70.6661 28.2686 69.7286 27.8555 68.4864 27.8555C67.2384 27.8555 66.2921 28.2715 65.6476 29.1035C65.0089 29.9297 64.6896 31.0898 64.6896 32.584C64.6896 34.0605 65.0089 35.2061 65.6476 36.0205ZM68.4689 39.1846C66.5294 39.1846 64.9972 38.5986 63.8722 37.4268C62.753 36.249 62.1935 34.626 62.1935 32.5576C62.1935 30.4775 62.756 28.8545 63.881 27.6885C65.006 26.5225 66.5382 25.9395 68.4777 25.9395C70.4171 25.9395 71.9464 26.5254 73.0655 27.6973C74.1847 28.8633 74.7443 30.4863 74.7443 32.5664C74.7443 34.623 74.1818 36.2402 73.0568 37.418C71.9318 38.5957 70.4025 39.1846 68.4689 39.1846ZM79.883 39V26.124H82.4143C82.8713 26.8389 83.8 28.2803 85.2004 30.4482C86.6008 32.6162 87.4534 33.9346 87.758 34.4033C87.8459 34.5381 87.9954 34.7666 88.2063 35.0889C88.4231 35.4053 88.5754 35.6309 88.6633 35.7656C88.6223 33.7559 88.6018 32.7129 88.6018 32.6367V26.124H90.7727V39H88.2063L82.3967 29.9473L81.9748 29.2529C82.0217 30.7998 82.0452 31.8867 82.0452 32.5137V39H79.883ZM98.9086 39V28.0312H95.1556V26.124H105.035V28.0312H101.299V39H98.9086ZM107.783 39L112.52 26.1152H115.113L119.78 39H117.336L116.062 35.3613H111.553L110.27 39H107.783ZM112.151 33.5859H115.456C114.401 30.2051 113.859 28.459 113.83 28.3477L112.151 33.5859ZM125.727 39V28.0312H121.974V26.124H131.853V28.0312H128.118V39H125.727ZM136.122 39V26.124H143.926L143.83 28.0137H138.504V31.3359H143.566V33.2256H138.504V37.1016H144.023L143.944 39H136.122ZM148.353 35.0889V33.2959H153.064V35.0889H148.353ZM157.966 39V26.124H160.497C160.954 26.8389 161.883 28.2803 163.283 30.4482C164.684 32.6162 165.536 33.9346 165.841 34.4033C165.929 34.5381 166.078 34.7666 166.289 35.0889C166.506 35.4053 166.658 35.6309 166.746 35.7656C166.705 33.7559 166.685 32.7129 166.685 32.6367V26.124H168.855V39H166.289L160.479 29.9473L160.058 29.2529C160.104 30.7998 160.128 31.8867 160.128 32.5137V39H157.966ZM177.44 36.0205C178.078 36.835 179.022 37.2422 180.27 37.2422C181.518 37.2422 182.458 36.8379 183.091 36.0293C183.73 35.2148 184.049 34.0664 184.049 32.584C184.049 31.084 183.73 29.9209 183.091 29.0947C182.458 28.2686 181.521 27.8555 180.278 27.8555C179.03 27.8555 178.084 28.2715 177.44 29.1035C176.801 29.9297 176.482 31.0898 176.482 32.584C176.482 34.0605 176.801 35.2061 177.44 36.0205ZM180.261 39.1846C178.321 39.1846 176.789 38.5986 175.664 37.4268C174.545 36.249 173.985 34.626 173.985 32.5576C173.985 30.4775 174.548 28.8545 175.673 27.6885C176.798 26.5225 178.33 25.9395 180.27 25.9395C182.209 25.9395 183.738 26.5254 184.857 27.6973C185.977 28.8633 186.536 30.4863 186.536 32.5664C186.536 34.623 185.974 36.2402 184.849 37.418C183.724 38.5957 182.194 39.1846 180.261 39.1846ZM195.287 39.1758C193.735 39.1758 192.343 38.8184 191.113 38.1035L191.693 36.2139C192.243 36.5186 192.841 36.7646 193.486 36.9521C194.136 37.1396 194.769 37.2334 195.384 37.2334C196.14 37.2334 196.711 37.0723 197.098 36.75C197.485 36.4219 197.678 35.9531 197.678 35.3438C197.678 34.5352 197.139 33.9756 196.061 33.665C195.985 33.6416 195.771 33.5801 195.419 33.4805C195.068 33.375 194.737 33.2754 194.426 33.1816C194.121 33.082 193.902 33.0059 193.767 32.9531C192.038 32.3438 191.174 31.207 191.174 29.543C191.174 28.377 191.587 27.4775 192.413 26.8447C193.245 26.2119 194.347 25.8955 195.718 25.8955C197.271 25.8955 198.61 26.2148 199.735 26.8535L199.014 28.5938C197.865 28.0781 196.799 27.8203 195.815 27.8203C195.106 27.8203 194.57 27.9463 194.206 28.1982C193.849 28.4443 193.658 28.8574 193.635 29.4375C193.635 30.1523 193.989 30.6182 194.698 30.835C194.839 30.8877 195.185 31.002 195.736 31.1777C196.286 31.3535 196.644 31.4678 196.808 31.5205C197.986 31.9072 198.826 32.3877 199.33 32.9619C199.84 33.5361 200.095 34.3359 200.095 35.3613C200.095 36.5859 199.661 37.5293 198.794 38.1914C197.927 38.8477 196.758 39.1758 195.287 39.1758Z" fill="black"/>
</svg>
