<?xml version="1.0" encoding="UTF-8" standalone="no"?>
<!-- Created with Inkscape (http://www.inkscape.org/) -->

<svg
   width="32"
   height="32"
   viewBox="0 0 8.4666667 8.4666667"
   version="1.1"
   id="svg5"
   inkscape:version="1.1 (c68e22c387, 2021-05-23)"
   sodipodi:docname="dibujo-1.svg"
   inkscape:export-filename="C:\Users\maipe\Downloads\dibujo-1.png"
   inkscape:export-xdpi="96"
   inkscape:export-ydpi="96"
   xmlns:inkscape="http://www.inkscape.org/namespaces/inkscape"
   xmlns:sodipodi="http://sodipodi.sourceforge.net/DTD/sodipodi-0.dtd"
   xmlns="http://www.w3.org/2000/svg"
   xmlns:svg="http://www.w3.org/2000/svg">
  <sodipodi:namedview
     id="namedview7"
     pagecolor="#ffffff"
     bordercolor="#666666"
     borderopacity="1.0"
     inkscape:pageshadow="2"
     inkscape:pageopacity="0.01176471"
     inkscape:pagecheckerboard="0"
     inkscape:document-units="px"
     showgrid="false"
     inkscape:zoom="9.1958163"
     inkscape:cx="17.181726"
     inkscape:cy="12.99504"
     inkscape:window-width="1366"
     inkscape:window-height="705"
     inkscape:window-x="-8"
     inkscape:window-y="-8"
     inkscape:window-maximized="1"
     inkscape:current-layer="path1941" />
  <defs
     id="defs2" />
  <g
     inkscape:label="Capa 1"
     inkscape:groupmode="layer"
     id="layer1">
    <g
       id="path1941"
       inkscape:transform-center-x="-0.82448969"
       inkscape:transform-center-y="-0.025688675"
       transform="matrix(-0.12905548,-0.01924178,0.01858895,-0.1336661,3.8072207,4.7312031)">
      <path
         style="color:#000000;fill:#0a6759;fill-opacity:0.997783;stroke-linecap:square;-inkscape-stroke:none;paint-order:stroke fill markers"
         d="m 11.152344,-28.720703 c -0.674455,0.125715 -0.990529,0.457652 -1.2968752,0.5625 -0.6126934,0.209695 -0.9418549,0.382147 -1.2695313,0.550781 -0.6553528,0.337268 -1.2096035,0.676558 -1.8574219,1.087891 -1.2956368,0.822666 -2.8728568,1.907268 -4.71875,3.21875 -3.6917863,2.622964 -8.3945126,6.121235 -13.0585936,9.685547 -4.664081,3.564312 -9.273006,7.1813256 -12.773438,10.0546871 -1.750215,1.4366808 -3.211653,2.67487321 -4.345703,3.7089844 -0.567025,0.5170556 -1.039571,0.9620828 -1.537109,1.5058594 -0.248769,0.2718882 -0.500041,0.5439607 -0.863281,1.0800781 -0.363241,0.5361174 31.58007,-3.9069044 32.064338,-0.1717245 0.484268,3.7351801 -31.415568,8.5174485 -30.92762,8.9432085 0.487949,0.425761 0.801449,0.62476 1.111329,0.824219 0.619758,0.398918 1.189006,0.709093 1.86914,1.064453 1.360268,0.710722 3.089714,1.535666 5.148438,2.478516 4.117446,1.885699 9.49719,4.207787 14.9160153,6.464844 5.41882525,2.257056 10.8570834,4.440374 15.0957031,6.035156 2.1193096,0.797391 3.9221746,1.443143 5.3847656,1.908203 0.731296,0.23253 1.352572,0.421086 2.072266,0.580078 0.359846,0.0795 0.721276,0.160515 1.367187,0.207031 0.645912,0.04652 1.564014,0.964713 4.556641,-1.322265 2.992626,-2.286979 2.347911,-3.413373 2.472656,-4.048828 0.124745,-0.635456 0.140406,-1.004954 0.158203,-1.373047 0.03559,-0.736186 0.01864,-1.38565 -0.01367,-2.152344 C 24.6424,20.638487 24.490174,18.728941 24.277344,16.474609 23.851684,11.965947 23.174666,6.1455875 22.419922,0.32421875 21.665178,-5.49715 20.835845,-11.297482 20.097656,-15.765625 c -0.369094,-2.234072 -0.710521,-4.119969 -1.039062,-5.619141 -0.164271,-0.749585 -0.313001,-1.381215 -0.535157,-2.083984 -0.111077,-0.351384 -0.221235,-0.704475 -0.503906,-1.287109 -0.282671,-0.582634 0.05502,-1.836955 -3.421875,-3.285157 -1.738447,-0.7241 -2.770858,-0.805402 -3.445312,-0.679687 z M 7.7929687,-11.705078 C 8.4268729,-7.7043723 9.1170344,-3.0226939 9.7636719,1.9648437 10.410291,6.9522373 10.936458,11.655521 11.34375,15.685547 7.5620022,14.234147 3.1623768,12.492438 -1.4804687,10.558594 -6.1232132,8.6247913 -10.458504,6.7267897 -14.152344,5.0644531 c 3.147696,-2.5492679 6.8557199,-5.48737433 10.8515627,-8.5410156 3.99607452,-3.0538183 7.8072135,-5.8607305 11.09375,-8.2285155 z"
         id="path2282"
         sodipodi:nodetypes="ssssssssssssssssssccssccsssssssscscscsc" />
    </g>
  </g>
</svg>
