<svg width="174" height="64" viewBox="0 0 174 64" fill="none" xmlns="http://www.w3.org/2000/svg">
<g filter="url(#filter0_i_59:80)">
<path d="M7.749 63.4273C8.4521 63.3881 8.8177 63.0867 9.1434 63.0194C9.7948 62.8848 10.1527 62.7505 10.5085 62.6199C11.2202 62.3589 11.8293 62.082 12.5431 61.7431C13.9707 61.0653 15.7196 60.154 17.772 59.0438C21.8768 56.8233 27.1264 53.832 32.3454 50.767C37.5644 47.702 42.7343 44.5749 46.6774 42.0689C48.649 40.8159 50.3003 39.7297 51.5915 38.8108C52.237 38.3514 52.7769 37.9539 53.3553 37.4573C53.6445 37.2091 53.9362 36.9609 54.3769 36.4542C54.8175 35.9474 21.7155 36.2352 21.7167 32.2969C21.7179 28.3587 54.8206 27.7133 54.3803 27.2058C53.94 26.6984 53.6472 26.4497 53.3582 26.201C52.7801 25.7036 52.2417 25.305 51.5964 24.8446C50.3059 23.9238 48.6547 22.8346 46.6839 21.5787C42.7423 19.0668 37.5736 15.9318 32.3565 12.8589C27.1394 9.78603 21.8928 6.78698 17.7894 4.56036C15.7377 3.44704 13.9881 2.53374 12.5609 1.8538C11.8473 1.51382 11.2398 1.23432 10.5283 0.972161C10.1725 0.841079 9.8154 0.708211 9.1641 0.57265C8.5128 0.437085 7.6997 -0.63907 4.35105 1.32755C1.00237 3.29416 1.50959 4.54923 1.29854 5.19123C1.0875 5.83323 1.02267 6.21422 0.955864 6.59347C0.822234 7.35197 0.753574 8.02765 0.685024 8.82696C0.547944 10.4256 0.450264 12.4261 0.368654 14.7922C0.205434 19.5246 0.124524 25.6509 0.122594 31.7888C0.120674 37.9267 0.197454 44.0528 0.357704 48.7854C0.437834 51.1517 0.535863 53.1532 0.671933 54.7521C0.739973 55.5515 0.807794 56.2265 0.940954 56.9852C1.00752 57.3645 1.07293 57.7455 1.28358 58.3878C1.49422 59.0302 0.984554 60.285 4.33199 62.2567C6.0057 63.2425 7.0458 63.4664 7.749 63.4273ZM13.4195 46.2389C13.3036 42.0051 13.2205 37.0576 13.2221 31.7989C13.2238 26.5403 13.3104 21.5926 13.429 17.3591C17.0864 19.3753 21.3342 21.776 25.8042 24.4088C30.2741 27.0416 34.4358 29.5957 37.9757 31.8187C34.4345 34.0363 30.2715 36.5813 25.8002 39.2072C21.3287 41.8332 17.0781 44.2283 13.4195 46.2389Z" fill="white"/>
<path d="M75.3827 42.8939H68.3747L64.8467 39.8459V37.7339H66.1187V39.2699L68.8547 41.5979H74.9027L77.7107 39.2699V36.8219L75.9827 35.3579H67.3907L64.8467 33.1979V29.1179L68.4467 26.0939H75.4547L78.9827 29.1179V31.1099H77.7107V29.6939L74.9507 27.3659H68.9027L66.1187 29.6939V32.5739L67.8467 34.0619H76.4147L78.9827 36.2219V39.8699L75.3827 42.8939Z" fill="white"/>
<path d="M81.1414 29.6699V28.2059H82.3654V29.6699H81.1414ZM81.1414 42.8939V31.4219H82.3414V42.8939H81.1414Z" fill="white"/>
<path d="M88.8542 32.6699V42.8939H87.5582V32.6699H84.5342V31.4219H87.5582V26.1179H88.8542V31.4219H91.9742V32.6699H88.8542Z" fill="white"/>
<path d="M94.1257 29.6699V28.2059H95.3497V29.6699H94.1257ZM94.1257 42.8939V31.4219H95.3257V42.8939H94.1257Z" fill="white"/>
<path d="M107.215 42.8939V33.9659L105.535 32.6939H100.735L99.055 33.9659V42.8699H97.759V31.4459H99.055V32.5259L100.447 31.4459H105.967L108.511 33.2939V42.8939H107.215Z" fill="white"/>
<path d="M119.313 48.2219H113.793L111.849 46.6619L112.665 45.7019L114.225 46.9739H118.905L120.561 45.7259V41.9099L119.193 42.8939H112.737L110.433 41.0219V33.2939L112.737 31.4459H119.193L120.561 32.4299V31.4219H121.857V46.3739L119.313 48.2219ZM120.561 33.9419L118.905 32.6939H113.193L111.729 33.8939V40.3979L113.193 41.5979H118.905L120.561 40.3979V33.9419Z" fill="white"/>
<path d="M144.09 42.8939H137.658L135.114 30.1499L132.546 42.8939H126.138L124.026 34.4939V26.0939H125.298V34.3499L127.122 41.5979H131.514L134.442 26.9579H135.762L138.714 41.5979H143.106L144.93 34.3499V26.0939H146.202V34.4939L144.09 42.8939Z" fill="white"/>
<path d="M149.416 37.4699V40.3499L151.072 41.5979H156.808L158.32 40.3259L159.184 41.3339L157.24 42.8939H150.664L148.12 41.0219V33.2939L150.64 31.4459H157.24L159.544 33.3179V37.4699H149.416ZM158.248 33.9179L156.808 32.6939H151.072L149.416 33.9659V36.2459H158.248V33.9179Z" fill="white"/>
<path d="M162.492 41.9099V42.3939H162.196V26.5939H162.492V32.7659V34.0047L163.352 33.113L164.5 31.9219H170.663L172.644 33.5319V40.7839L170.663 42.3939H164.543L163.281 41.5016L162.492 40.9441V41.9099ZM172.396 33.8939V33.6548L172.21 33.5047L170.722 32.3047L170.585 32.1939H170.408H164.744H164.531L164.383 32.3475L162.631 34.1715L162.492 34.3167V34.5179V40.3259V40.5723L162.687 40.7224L164.343 41.9944L164.478 42.0979H164.648H170.408H170.585L170.722 41.9871L172.21 40.7871L172.396 40.637V40.3979V33.8939Z" fill="white" stroke="#FFFEFE"/>
</g>
<defs>
<filter id="filter0_i_59:80" x="0.122559" y="0.157379" width="173.021" height="67.2741" filterUnits="userSpaceOnUse" color-interpolation-filters="sRGB">
<feFlood flood-opacity="0" result="BackgroundImageFix"/>
<feBlend mode="normal" in="SourceGraphic" in2="BackgroundImageFix" result="shape"/>
<feColorMatrix in="SourceAlpha" type="matrix" values="0 0 0 0 0 0 0 0 0 0 0 0 0 0 0 0 0 0 127 0" result="hardAlpha"/>
<feOffset dy="4"/>
<feGaussianBlur stdDeviation="2"/>
<feComposite in2="hardAlpha" operator="arithmetic" k2="-1" k3="1"/>
<feColorMatrix type="matrix" values="0 0 0 0 0 0 0 0 0 0 0 0 0 0 0 0 0 0 0.25 0"/>
<feBlend mode="normal" in2="shape" result="effect1_innerShadow_59:80"/>
</filter>
</defs>
</svg>
