<?xml version="1.0" encoding="UTF-8" standalone="no"?>
<!-- Created with Inkscape (http://www.inkscape.org/) -->

<svg
   width="210mm"
   height="297mm"
   viewBox="0 0 210 297"
   version="1.1"
   id="svg975"
   inkscape:version="1.1 (c68e22c387, 2021-05-23)"
   sodipodi:docname="iconos.svg"
   xmlns:inkscape="http://www.inkscape.org/namespaces/inkscape"
   xmlns:sodipodi="http://sodipodi.sourceforge.net/DTD/sodipodi-0.dtd"
   xmlns:xlink="http://www.w3.org/1999/xlink"
   xmlns="http://www.w3.org/2000/svg"
   xmlns:svg="http://www.w3.org/2000/svg">
  <sodipodi:namedview
     id="namedview977"
     pagecolor="#ffffff"
     bordercolor="#666666"
     borderopacity="1.0"
     inkscape:pageshadow="2"
     inkscape:pageopacity="0.0"
     inkscape:pagecheckerboard="0"
     inkscape:document-units="mm"
     showgrid="false"
     showguides="true"
     inkscape:guide-bbox="true"
     inkscape:zoom="1.8529742"
     inkscape:cx="623.05239"
     inkscape:cy="672.16263"
     inkscape:window-width="1366"
     inkscape:window-height="705"
     inkscape:window-x="-8"
     inkscape:window-y="-8"
     inkscape:window-maximized="1"
     inkscape:current-layer="g78691">
    <sodipodi:guide
       position="-144.5843,81.335152"
       orientation="1,0"
       id="guide168368" />
    <sodipodi:guide
       position="172.9838,121.15597"
       orientation="0,-1"
       id="guide169784" />
    <sodipodi:guide
       position="173.10739,119.57629"
       orientation="1,0"
       id="guide169786" />
  </sodipodi:namedview>
  <defs
     id="defs972">
    <inkscape:path-effect
       effect="bspline"
       id="path-effect162734"
       is_visible="true"
       lpeversion="1"
       weight="33.333333"
       steps="2"
       helper_size="0"
       apply_no_weight="true"
       apply_with_weight="true"
       only_selected="false" />
    <inkscape:path-effect
       effect="bspline"
       id="path-effect162626"
       is_visible="true"
       lpeversion="1"
       weight="33.333333"
       steps="2"
       helper_size="0"
       apply_no_weight="true"
       apply_with_weight="true"
       only_selected="false" />
    <rect
       x="637.28266"
       y="135.85187"
       width="90.822319"
       height="58.767383"
       id="rect6333" />
    <clipPath
       clipPathUnits="userSpaceOnUse"
       id="clipPath1170">
      <use
         x="0"
         y="0"
         xlink:href="#g1166"
         id="use1172" />
    </clipPath>
    <clipPath
       clipPathUnits="userSpaceOnUse"
       id="clipPath1728">
      <use
         x="0"
         y="0"
         xlink:href="#g1724"
         id="use1730" />
    </clipPath>
    <clipPath
       clipPathUnits="userSpaceOnUse"
       id="clipPath78702">
      <use
         x="0"
         y="0"
         xlink:href="#g78698"
         id="use78704" />
    </clipPath>
    <clipPath
       clipPathUnits="userSpaceOnUse"
       id="clipPath121563">
      <use
         x="0"
         y="0"
         xlink:href="#g121559"
         id="use121565" />
    </clipPath>
    <filter
       inkscape:collect="always"
       style="color-interpolation-filters:sRGB"
       id="filter155819"
       x="-0.023629549"
       y="-0.085271844"
       width="1.0472591"
       height="1.1705437">
      <feGaussianBlur
         inkscape:collect="always"
         stdDeviation="0.20150917"
         id="feGaussianBlur155821" />
    </filter>
    <filter
       inkscape:collect="always"
       style="color-interpolation-filters:sRGB"
       id="filter155819-1"
       x="-0.038252611"
       y="-0.13804202"
       width="1.0765052"
       height="1.276084">
      <feGaussianBlur
         inkscape:collect="always"
         stdDeviation="0.13993692"
         id="feGaussianBlur155821-0" />
    </filter>
    <clipPath
       clipPathUnits="userSpaceOnUse"
       id="clipPath162024">
      <use
         x="0"
         y="0"
         xlink:href="#g162020"
         id="use162026" />
    </clipPath>
    <clipPath
       clipPathUnits="userSpaceOnUse"
       id="clipPath162954">
      <use
         x="0"
         y="0"
         xlink:href="#g162950"
         id="use162956" />
    </clipPath>
    <clipPath
       clipPathUnits="userSpaceOnUse"
       id="clipPath162968">
      <use
         x="0"
         y="0"
         xlink:href="#g162964"
         id="use162970" />
    </clipPath>
    <clipPath
       clipPathUnits="userSpaceOnUse"
       id="clipPath168496">
      <use
         x="0"
         y="0"
         xlink:href="#g168492"
         id="use168498" />
    </clipPath>
  </defs>
  <g
     inkscape:label="Capa 1"
     inkscape:groupmode="layer"
     id="layer1">
    <g
       id="g1168"
       clip-path="url(#clipPath1170)"
       transform="matrix(0.86666666,0,0,0.71631885,-16.030384,-6.7248825)"
       style="stroke-width:1.26917">
      <g
         inkscape:label="Clip"
         id="g1166"
         style="stroke-width:1.26917">
        <rect
           style="fill:#f3eeef;fill-opacity:0.996078;stroke:#0a6759;stroke-width:2.14913;stroke-linecap:square;stroke-opacity:0.997783;paint-order:stroke fill markers"
           id="rect1058"
           width="42.836536"
           height="37.125"
           x="46.834618"
           y="59.971153"
           rx="0.32703722"
           ry="0.39567888" />
        <path
           sodipodi:type="star"
           style="fill:#f3eeef;fill-opacity:0.996078;stroke:#0a6759;stroke-width:9.06269;stroke-linecap:square;stroke-opacity:0.997783;paint-order:stroke fill markers"
           id="path1082"
           inkscape:flatsided="true"
           sodipodi:sides="3"
           sodipodi:cx="168.37794"
           sodipodi:cy="82.030289"
           sodipodi:r1="75.585045"
           sodipodi:r2="37.792522"
           sodipodi:arg1="1.59936"
           sodipodi:arg2="2.6465575"
           inkscape:rounded="0.03"
           inkscape:randomized="-8.32667e-17"
           d="m 166.21925,157.5845 c -3.92591,-0.11217 -64.25392,-111.856945 -62.19383,-115.200801 2.0601,-3.343855 128.99792,0.282942 130.86374,3.738966 1.86581,3.456024 -64.744,111.574005 -68.66991,111.461835 z"
           transform="matrix(0.30815671,0,0,0.18249073,16.604852,51.349579)"
           inkscape:transform-center-x="-0.33058795"
           inkscape:transform-center-y="3.15541" />
      </g>
    </g>
    <g
       id="g1726"
       clip-path="url(#clipPath1728)"
       transform="translate(-6.8538462,0.85673077)">
      <g
         inkscape:label="Clip"
         id="g1724">
        <g
           id="g1718">
          <rect
             style="fill:#f3eeef;fill-opacity:0.996078;stroke:#0a6759;stroke-width:1.69333;stroke-linecap:square;stroke-opacity:0.997783;paint-order:stroke fill markers"
             id="rect1196"
             width="27.415384"
             height="27.986536"
             x="93.098076"
             y="35.982693"
             rx="0.28343225"
             ry="0.28343225" />
          <path
             sodipodi:type="star"
             style="fill:#f3eeef;fill-opacity:0.996078;stroke:#0a6759;stroke-width:7.76023;stroke-linecap:square;stroke-opacity:0.997783;paint-order:stroke fill markers"
             id="path1220"
             inkscape:flatsided="true"
             sodipodi:sides="3"
             sodipodi:cx="347.54935"
             sodipodi:cy="62.602058"
             sodipodi:r1="61.853203"
             sodipodi:r2="30.926601"
             sodipodi:arg1="0.51048832"
             sodipodi:arg2="1.5576859"
             inkscape:rounded="0.03"
             inkscape:randomized="-8.32667e-17"
             d="m 401.51664,92.823742 c -1.57037,2.804222 -105.48034,4.166607 -107.12368,1.40452 -1.64335,-2.762087 49.13178,-93.43195507 52.34549,-93.4740907 3.21371,-0.0421356 56.34855,89.2653477 54.77819,92.0695707 z"
             transform="matrix(0.25542369,0,0,0.18641211,17.956504,18.679223)"
             inkscape:transform-center-x="-0.10293669"
             inkscape:transform-center-y="-2.6761684" />
          <rect
             style="fill:#f3eeef;fill-opacity:0.996078;stroke:#0a6759;stroke-width:1.69333;stroke-linecap:square;stroke-opacity:0.997783;paint-order:stroke fill markers"
             id="rect1629"
             width="5.0483341"
             height="11.106336"
             x="103.99569"
             y="52.704613"
             rx="0.28343225"
             ry="0.28343225" />
        </g>
      </g>
    </g>
    <path
       id="rect1754"
       style="fill:#f3eeef;fill-opacity:0.996078;stroke:#0a6759;stroke-width:1.69333;stroke-linecap:square;stroke-opacity:0.997783;paint-order:stroke fill markers"
       d="m 161.65824,39.10155 h 9.69014 c 3.43389,0 6.19836,2.875213 6.19836,6.446666 0,3.571453 -7.29435,4.447332 -7.29435,4.447332 l -9.07304,2.945435 c -0.45274,0.146971 2.89492,-2.918177 2.44712,-2.936577 -3.11448,-0.127979 -8.23509,-1.373465 -8.23509,-4.45619 0,-3.571453 2.83297,-6.446666 6.26686,-6.446666 z"
       sodipodi:nodetypes="ssscssss" />
    <g
       id="g56204"
       transform="matrix(1.4670623,0,0,1.3979259,-20.756251,-51.99817)"
       style="stroke-width:0.698287">
      <path
         id="rect27941"
         style="fill:#f3eeef;fill-opacity:0.996078;stroke:#0a6759;stroke-width:1.02997;stroke-linecap:square;stroke-miterlimit:4;stroke-dasharray:none;stroke-opacity:0.997783;paint-order:stroke fill markers"
         d="m 40.828291,105.48179 11.052672,12.46505 c 0.705091,0.79519 -0.04804,3.72055 0.55505,2.07174 0.182537,-0.49906 -1.285329,-0.004 -1.990419,-0.79901 L 39.392922,106.75452 c -0.705097,-0.79519 -0.952647,-1.71919 -0.555049,-2.07173 0.397597,-0.35255 1.285321,0.004 1.990418,0.799 z m 4.863037,3.49088 c -0.980085,-0.009 6.623109,9.40848 6.048516,10.24763 -0.426246,0.6225 -9.166732,-7.47121 -9.176863,-6.60664 -0.02384,2.03024 1.335158,3.70246 3.04218,3.74335 l 0.07723,7.5e-4 c 0.159316,-0.001 0.318316,-0.017 0.475593,-0.0472 -0.143784,0.5595 -0.220659,1.14057 -0.228349,1.72589 -0.03963,3.40882 2.226637,6.21642 5.073162,6.28498 l 0.128935,10e-4 c 2.847019,-0.0163 5.148944,-2.78186 5.153045,-6.19094 0.0041,-3.40893 -2.290956,-6.18238 -5.137795,-6.2087 -0.824989,-0.006 -1.639271,0.22378 -2.375015,0.67072 -0.03255,-2.00011 -1.398491,-3.60565 -3.080625,-3.62099 z"
         sodipodi:nodetypes="ssssssscscccccccscccc" />
      <path
         id="path37618"
         style="fill:#008080;fill-opacity:0.967742;stroke:#000000;stroke-width:0;stroke-linecap:butt;stroke-linejoin:miter;stroke-miterlimit:4;stroke-dasharray:none;stroke-opacity:1"
         d="m 156.07617,394.19922 c -4.48076,2.80048 -9.06118,6.26874 -12.7832,10.11328 z m 2.76758,2.76758 c -4.48076,2.80048 -9.06118,6.26679 -12.7832,10.11132 z m 4.58008,1.71679 c -5.68455,3.59309 -11.49679,8.04199 -16.21875,12.97461 z"
         transform="scale(0.26458333)" />
    </g>
    <g
       id="g78700"
       clip-path="url(#clipPath78702)">
      <g
         inkscape:label="Clip"
         id="g78698">
        <g
           id="g78691">
          <rect
             style="fill:#f3eeef;fill-opacity:0.996078;stroke:#0a6759;stroke-width:1.8;stroke-linecap:square;stroke-miterlimit:4;stroke-dasharray:none;stroke-opacity:0.997783;paint-order:stroke fill markers"
             id="rect56346"
             width="31.905474"
             height="24.232006"
             x="86.427483"
             y="96.524155"
             ry="1.9183668"
             rx="1.9183668" />
          <rect
             style="fill:#000000;fill-opacity:0;stroke:#0a6759;stroke-width:1.4;stroke-linecap:square;stroke-miterlimit:4;stroke-dasharray:none;stroke-opacity:0.997783;paint-order:stroke fill markers"
             id="rect78317"
             width="31.905476"
             height="10.39957"
             x="86.427483"
             y="96.524155"
             rx="1.9183669"
             ry="1.9183668" />
          <rect
             style="fill:#000000;fill-opacity:0;stroke:#0a6759;stroke-width:1.1;stroke-linecap:square;stroke-miterlimit:4;stroke-dasharray:none;stroke-opacity:0.997783;paint-order:stroke fill markers"
             id="rect78501"
             width="3.2309341"
             height="8.4812012"
             x="94.605797"
             y="103.9957"
             rx="1.9183668"
             ry="1.9183668" />
          <rect
             style="fill:#000000;fill-opacity:0;stroke:#0a6759;stroke-width:1.1;stroke-linecap:square;stroke-miterlimit:4;stroke-dasharray:none;stroke-opacity:0.997783;paint-order:stroke fill markers"
             id="rect78501-4"
             width="3.2309341"
             height="8.4812012"
             x="105.91404"
             y="103.99574"
             rx="1.9183668"
             ry="1.9183668" />
          <g
             id="g121561"
             clip-path="url(#clipPath121563)"
             transform="matrix(0.74120966,0,0,0.67259721,88.44507,-40.962837)"
             style="stroke-width:1.41629">
            <g
               inkscape:label="Clip"
               id="g121559"
               style="stroke-width:1.41629">
              <g
                 id="g121553"
                 style="stroke-width:1.41629">
                <path
                   style="fill:#000000;fill-opacity:0;stroke:#0a6759;stroke-width:9.67571;stroke-linecap:square;stroke-miterlimit:4;stroke-dasharray:none;stroke-opacity:0.997783;paint-order:stroke fill markers"
                   id="path79149"
                   sodipodi:type="arc"
                   sodipodi:cx="114.0374"
                   sodipodi:cy="-212.11072"
                   sodipodi:rx="7.6757731"
                   sodipodi:ry="8.7107973"
                   sodipodi:start="1.5909235"
                   sodipodi:end="1.5660438"
                   sodipodi:open="true"
                   sodipodi:arc-type="arc"
                   d="m 113.88292,-203.40168 a 7.6757731,8.7107973 0 0 1 -7.52055,-8.83018 7.6757731,8.7107973 0 0 1 7.73403,-8.5894 7.6757731,8.7107973 0 0 1 7.61676,8.72332 7.6757731,8.7107973 0 0 1 -7.63928,8.69792"
                   transform="scale(1,-1)" />
                <path
                   style="fill:#000000;fill-opacity:0;stroke:#0a6759;stroke-width:5.33934;stroke-linecap:square;stroke-miterlimit:4;stroke-dasharray:none;stroke-opacity:0.997783;paint-order:stroke fill markers"
                   id="path79149-9"
                   sodipodi:type="arc"
                   sodipodi:cx="114.2943"
                   sodipodi:cy="215.1649"
                   sodipodi:rx="17.544228"
                   sodipodi:ry="12.515207"
                   sodipodi:start="1.5909235"
                   sodipodi:end="1.5660438"
                   sodipodi:open="true"
                   sodipodi:arc-type="arc"
                   d="m 113.9412,227.67757 a 17.544228,12.515207 0 0 1 -17.189435,-12.68671 17.544228,12.515207 0 0 1 17.677395,-12.3408 17.544228,12.515207 0 0 1 17.40934,12.53321 17.544228,12.515207 0 0 1 -17.46082,12.4967" />
                <path
                   style="fill:#f3eeef;fill-opacity:0.996078;stroke:#020c48;stroke-width:0;stroke-linecap:square;stroke-miterlimit:4;stroke-dasharray:none;stroke-opacity:0.66129;paint-order:stroke fill markers"
                   d="m 410.99111,850.15012 c -16.09438,-4.33384 -28.6488,-13.17204 -34.21846,-24.08947 -6.14278,-12.04084 -2.01187,-28.34741 9.46894,-37.37822 l 3.76014,-2.95772 v 15.45648 c 0,14.28214 0.34422,16.07795 4.53065,23.63629 11.7509,21.21551 33.57054,28.61868 54.10531,18.35734 17.09631,-8.54313 25.72659,-25.25756 24.10592,-46.68644 -0.46348,-6.12834 -0.36047,-11.14244 0.22892,-11.14244 0.58939,0 3.73036,2.57584 6.97994,5.7241 17.56284,17.01521 11.77261,41.23669 -12.86214,53.8044 -14.6336,7.4655 -39.33892,9.78884 -56.09922,5.27568 z"
                   id="path110004"
                   transform="scale(0.26458333)" />
              </g>
            </g>
          </g>
          <g
             id="g162022"
             clip-path="url(#clipPath162024)"
             transform="matrix(0.71567888,0,0,0.86729856,10.867886,25.163254)"
             style="stroke-width:1.26928">
            <g
               inkscape:label="Clip"
               id="g162020"
               style="stroke-width:1.26928">
              <g
                 id="g162011"
                 style="stroke-width:1.26928">
                <rect
                   style="opacity:0.996795;mix-blend-mode:normal;fill:#f3eeef;fill-opacity:0.996078;stroke:#01583c;stroke-width:1.27310992;stroke-linejoin:round;stroke-miterlimit:4;stroke-dasharray:none;stroke-opacity:1;paint-order:stroke fill markers;filter:url(#filter155819)"
                   id="rect145137"
                   width="47.405769"
                   height="13.136539"
                   x="33.698074"
                   y="176.48653"
                   rx="3.3292551"
                   ry="2.2118874"
                   transform="matrix(0.8051307,0,0,1,11.09263,0)" />
                <rect
                   style="fill:#f3eeef;fill-opacity:0.996078;stroke:#016e4c;stroke-width:2.9550917;stroke-linecap:square;stroke-linejoin:miter;stroke-miterlimit:4;stroke-dasharray:none;stroke-opacity:1;paint-order:stroke fill markers;filter:url(#filter155819-1)"
                   id="rect145137-2"
                   width="47.405769"
                   height="13.136539"
                   x="33.698071"
                   y="163.34999"
                   rx="4.5121794"
                   ry="3.6338151"
                   transform="matrix(0.59405561,0,0,0.60869568,23.07371,69.631095)" />
                <rect
                   style="opacity:0.996795;fill:#f3eeef;fill-opacity:0.996078;stroke:#016a49;stroke-width:1.14235;stroke-linejoin:miter;stroke-miterlimit:4;stroke-dasharray:none;stroke-opacity:1;paint-order:normal"
                   id="rect158599-5"
                   width="1.1423076"
                   height="4.8751569"
                   x="54.259613"
                   y="165.04312"
                   rx="2.6804855"
                   ry="2.2118874" />
                <rect
                   style="opacity:0.996795;fill:#f3eeef;fill-opacity:0.996078;stroke:#016a49;stroke-width:1.14235;stroke-linejoin:miter;stroke-miterlimit:4;stroke-dasharray:none;stroke-opacity:1;paint-order:normal"
                   id="rect158599-5-7"
                   width="1.1423076"
                   height="4.7323537"
                   x="58.686054"
                   y="165.04312"
                   rx="2.6804855"
                   ry="2.2118874" />
                <rect
                   style="opacity:0.996795;fill:#f3eeef;fill-opacity:0.996078;stroke:#016a49;stroke-width:1.14235;stroke-linejoin:miter;stroke-miterlimit:4;stroke-dasharray:none;stroke-opacity:1;paint-order:normal"
                   id="rect158599-5-3"
                   width="1.1423076"
                   height="4.7323771"
                   x="49.833172"
                   y="165.04312"
                   rx="2.6804855"
                   ry="2.2118874" />
                <rect
                   style="opacity:0.996795;fill:#f3eeef;fill-opacity:0.996078;stroke:#016a49;stroke-width:1.14235;stroke-linejoin:miter;stroke-miterlimit:4;stroke-dasharray:none;stroke-opacity:1;paint-order:normal"
                   id="rect158599-5-37"
                   width="1.1423076"
                   height="4.8751445"
                   x="63.398079"
                   y="165.04312"
                   rx="2.6804855"
                   ry="2.2118874" />
                <g
                   id="g162966"
                   clip-path="url(#clipPath162968)">
                  <g
                     inkscape:label="Clip"
                     id="g162964">
                    <g
                       id="g162952"
                       clip-path="url(#clipPath162954)">
                      <g
                         inkscape:label="Clip"
                         id="g162950">
                        <g
                           id="g162944">
                          <g
                             id="g168506">
                            <g
                               id="g168494"
                               clip-path="url(#clipPath168496)">
                              <g
                                 inkscape:label="Clip"
                                 id="g168492">
                                <path
                                   id="rect162398"
                                   style="opacity:0.996795;fill:#f3eeef;fill-opacity:0.996078;stroke:#01432e;stroke-width:1.01542201;stroke-miterlimit:4;stroke-dasharray:none"
                                   d="m 119.24449,169.01015 h 2.08118 c 1.48499,0 2.68048,0.67385 2.68048,1.51086 v 23.51809 c 0,0.83702 -1.19549,1.51086 -2.68048,1.51086 h -2.08118 c -1.48499,0 -2.68049,-0.67384 -2.68049,-1.51086 v -23.51809 c 0,-0.83701 1.1955,-1.51086 2.68049,-1.51086 z" />
                                <path
                                   id="rect162398-0"
                                   style="opacity:0.996795;fill:#f3eeef;fill-opacity:0.996078;stroke:#01432e;stroke-width:1.01542201;stroke-miterlimit:4;stroke-dasharray:none"
                                   d="m 126.68663,169.1252 h 2.08118 c 1.48499,0 2.86258,0.67097 2.88,1.50431 l 0.49879,23.86401 c 0.0174,0.83333 -1.8938,1.05644 -3.37879,1.05644 h -2.08118 c -1.48498,0 -3.47854,-0.0551 -3.47854,-0.88848 v -24.64781 c 0,-0.83338 1.99356,-0.88847 3.47854,-0.88847 z"
                                   sodipodi:nodetypes="sssssssss" />
                                <path
                                   id="rect162398-0-5"
                                   style="opacity:0.996795;fill:#f3eeef;fill-opacity:0.996078;stroke:#01432e;stroke-width:1.01542201;stroke-miterlimit:4;stroke-dasharray:none"
                                   inkscape:transform-center-x="4.2836539"
                                   inkscape:transform-center-y="-0.19423126"
                                   d="m 134.12879,169.1252 h 2.08118 c 1.48499,0 2.68048,0.67092 2.68048,1.50432 v 23.41613 c 0,0.83339 -1.19549,1.5043 -2.68048,1.5043 h -2.08118 c -1.48499,0 -2.68049,-0.67091 -2.68049,-1.5043 v -23.41613 c 0,-0.8334 1.1955,-1.50432 2.68049,-1.50432 z" />
                                <path
                                   id="rect162398-0-5-5"
                                   style="opacity:0.996795;fill:#f3eeef;fill-opacity:0.996078;stroke:#01432e;stroke-width:3.02362203;stroke-miterlimit:4;stroke-dasharray:none"
                                   inkscape:transform-center-x="0.14009714"
                                   inkscape:transform-center-y="4.2834751"
                                   d="M 374.92383 614.17969 C 374.07735 614.17821 373.39534 616.16415 373.39453 618.63086 L 373.39258 622.08789 C 373.39188 623.64551 373.66312 625.01072 374.07617 625.80664 L 359.3418 625.78906 C 357.40572 625.78667 355.84369 629.02031 355.8418 633.03711 L 355.83594 638.66602 C 355.83342 642.68275 357.39012 645.9174 359.32617 645.91992 L 413.72461 645.98828 C 415.66069 645.99071 417.22269 642.75899 417.22461 638.74219 L 417.23047 633.11328 C 417.23301 629.09648 415.67629 625.85991 413.74023 625.85742 L 399.55078 625.83984 C 399.96092 625.04358 400.22994 623.68414 400.23047 622.13477 L 400.23242 618.67773 C 400.23356 616.21106 399.55346 614.2242 398.70703 614.22266 L 374.92383 614.17969 z "
                                   transform="matrix(0.3696956,0,0,0.30506604,-15.185422,-29.01337)" />
                              </g>
                            </g>
                          </g>
                        </g>
                      </g>
                      <rect
                         style="opacity:0.996795;fill:#f3eeef;fill-opacity:0.99607843;stroke:#01432e;stroke-width:1.77699;stroke-linejoin:miter;stroke-miterlimit:4;stroke-dasharray:none;stroke-opacity:1;paint-order:normal"
                         id="rect164221"
                         width="21.747103"
                         height="2.0579486"
                         x="117.49186"
                         y="152.49768"
                         rx="2.6804855"
                         ry="2.0579486" />
                    </g>
                  </g>
                </g>
              </g>
            </g>
          </g>
          <g
             id="g169516">
            <g
               id="g169379">
              <path
                 style="opacity:0.996795;fill:#f3eeef;fill-opacity:0.996078;stroke:#01583c;stroke-width:0.802;stroke-linejoin:round;stroke-miterlimit:4;stroke-dasharray:none;stroke-opacity:1;paint-order:markers fill stroke"
                 id="path168761"
                 sodipodi:type="arc"
                 sodipodi:cx="172.85497"
                 sodipodi:cy="175.27817"
                 sodipodi:rx="15.346936"
                 sodipodi:ry="14.135336"
                 sodipodi:start="1.5909235"
                 sodipodi:end="1.5660438"
                 sodipodi:open="true"
                 sodipodi:arc-type="arc"
                 d="m 172.5461,189.41064 a 15.346936,14.135336 0 0 1 -15.03659,-14.32905 15.346936,14.135336 0 0 1 15.46343,-13.93834 15.346936,14.135336 0 0 1 15.22894,14.15566 15.346936,14.135336 0 0 1 -15.27398,14.11443" />
              <path
                 style="opacity:0.996795;fill:#f3eeef;fill-opacity:0.996078;stroke:#01583c;stroke-width:1.18415;stroke-linejoin:round;stroke-miterlimit:4;stroke-dasharray:none;stroke-opacity:1;paint-order:markers fill stroke"
                 id="path168761-0"
                 sodipodi:type="arc"
                 sodipodi:cx="173.15788"
                 sodipodi:cy="175.4024"
                 sodipodi:rx="10.39957"
                 sodipodi:ry="9.5686054"
                 sodipodi:start="1.5909235"
                 sodipodi:end="1.5660438"
                 sodipodi:open="true"
                 sodipodi:arc-type="arc"
                 d="m 172.94858,184.96907 a 10.39957,9.5686054 0 0 1 -10.18926,-9.69973 10.39957,9.5686054 0 0 1 10.47851,-9.43526 10.39957,9.5686054 0 0 1 10.31961,9.58237 10.39957,9.5686054 0 0 1 -10.35013,9.55445" />
              <circle
                 id="path169009"
                 style="fill:#f3eeef;stroke:#01583c;stroke-width:0.264583"
                 cx="173.131"
                 cy="175.91539"
                 r="0.0073289243" />
              <circle
                 id="path169011"
                 style="fill:#f3eeef;stroke:#01583c;stroke-width:1.565;stroke-miterlimit:4;stroke-dasharray:none"
                 cx="173.131"
                 cy="175.91539"
                 r="0.0073289243" />
              <rect
                 style="opacity:0.996795;fill:#f3eeef;fill-opacity:0.996078;stroke:#01583c;stroke-width:0.665;stroke-linejoin:round;stroke-miterlimit:4;stroke-dasharray:none;stroke-opacity:1;paint-order:markers fill stroke"
                 id="rect169167"
                 width="0.21418273"
                 height="6.7824526"
                 x="172.98822"
                 y="169.27571"
                 rx="1.9183669"
                 ry="1.7848554" />
              <rect
                 style="opacity:0.996795;fill:#f3eeef;fill-opacity:0.996078;stroke:#01583c;stroke-width:0.665029;stroke-linejoin:round;stroke-miterlimit:4;stroke-dasharray:none;stroke-opacity:1;paint-order:markers fill stroke"
                 id="rect169167-2"
                 width="0.21415752"
                 height="5.1409626"
                 x="181.14261"
                 y="-174.97765"
                 rx="1.9182707"
                 ry="1.7845845"
                 transform="matrix(0.01782516,0.99984112,-0.9995185,0.03102863,0,0)" />
            </g>
            <path
               sodipodi:type="star"
               style="opacity:0.996795;fill:#f3eeef;fill-opacity:0.996078;stroke:#01583c;stroke-width:3.66051;stroke-linejoin:round;stroke-miterlimit:4;stroke-dasharray:none;stroke-opacity:1;paint-order:markers fill stroke"
               id="path169403"
               inkscape:flatsided="true"
               sodipodi:sides="3"
               sodipodi:cx="542.64429"
               sodipodi:cy="693.76044"
               sodipodi:r1="8.7019644"
               sodipodi:r2="10.161054"
               sodipodi:arg1="2.8753407"
               sodipodi:arg2="3.9225382"
               inkscape:rounded="0.03"
               inkscape:randomized="-8.32667e-17"
               d="m 534.24895,696.05007 c -0.11898,-0.43623 10.17285,-10.82011 10.61012,-10.70503 0.43728,0.11508 4.28408,14.22001 3.96577,14.54116 -0.3183,0.32115 -14.45692,-3.39989 -14.57589,-3.83613 z"
               transform="matrix(0.16410679,-0.05466772,0.04850631,0.18495209,50.433457,71.499885)"
               inkscape:transform-center-x="0.48783532"
               inkscape:transform-center-y="-0.13677777" />
            <path
               sodipodi:type="star"
               style="opacity:0.996795;fill:#f3eeef;fill-opacity:0.996078;stroke:#01583c;stroke-width:3.66051;stroke-linejoin:round;stroke-miterlimit:4;stroke-dasharray:none;stroke-opacity:1;paint-order:markers fill stroke"
               id="path169403-0"
               inkscape:flatsided="true"
               sodipodi:sides="3"
               sodipodi:cx="542.64429"
               sodipodi:cy="693.76044"
               sodipodi:r1="8.7019644"
               sodipodi:r2="10.161054"
               sodipodi:arg1="2.8753407"
               sodipodi:arg2="3.9225382"
               inkscape:rounded="0.03"
               inkscape:randomized="-8.32667e-17"
               transform="matrix(0.11991476,-0.12465973,0.12888952,0.14123608,22.45371,145.47737)"
               inkscape:transform-center-x="-0.0078102849"
               inkscape:transform-center-y="0.40817326"
               d="m 534.24895,696.05007 c -0.11898,-0.43623 10.17285,-10.82011 10.61012,-10.70503 0.43728,0.11508 4.28408,14.22001 3.96577,14.54116 -0.3183,0.32115 -14.45692,-3.39989 -14.57589,-3.83613 z" />
          </g>
          <rect
             style="opacity:0.996795;fill:#f3eeef;fill-opacity:0.996078;stroke:#01583c;stroke-width:0.665001;stroke-linejoin:round;stroke-miterlimit:4;stroke-dasharray:none;stroke-opacity:1;paint-order:markers fill stroke"
             id="rect169562"
             width="0.71394235"
             height="0.071394227"
             x="181.34135"
             y="175.84399"
             rx="1.9183668"
             ry="0.071394227" />
          <rect
             style="opacity:0.996795;fill:#f3eeef;fill-opacity:0.996078;stroke:#01583c;stroke-width:0.665001;stroke-linejoin:round;stroke-miterlimit:4;stroke-dasharray:none;stroke-opacity:1;paint-order:markers fill stroke"
             id="rect169562-1"
             width="0.71394235"
             height="0.071394227"
             x="164.24243"
             y="175.84402"
             rx="1.9183668"
             ry="0.071394227" />
          <rect
             style="opacity:0.996795;fill:#f3eeef;fill-opacity:0.996078;stroke:#01583c;stroke-width:0.665001;stroke-linejoin:round;stroke-miterlimit:4;stroke-dasharray:none;stroke-opacity:1;paint-order:markers fill stroke"
             id="rect169562-1-5"
             width="0.71394235"
             height="0.071394227"
             x="171.47415"
             y="-168.717"
             rx="1.9183668"
             ry="0.071394227"
             transform="rotate(88.508965)" />
          <rect
             style="opacity:0.996795;fill:#f3eeef;fill-opacity:0.996078;stroke:#01583c;stroke-width:0.665001;stroke-linejoin:round;stroke-miterlimit:4;stroke-dasharray:none;stroke-opacity:1;paint-order:markers fill stroke"
             id="rect169564"
             width="0.035697114"
             height="0.85673076"
             x="173.0717"
             y="182.70903"
             rx="1.9183668"
             ry="0.071394108" />
        </g>
      </g>
    </g>
  </g>
</svg>
